<svg width="28" height="28" viewBox="0 0 28 28" fill="none" xmlns="http://www.w3.org/2000/svg">
<path fill-rule="evenodd" clip-rule="evenodd" d="M14 28C6.26801 28 0 21.732 0 14C9.53674e-07 6.26801 6.26801 0 14 0C21.732 0 28 6.26802 28 14C27.9893 21.728 21.7273 27.9897 13.9996 28L14 28ZM25.807 15.916C23.3898 15.2131 20.8496 15.0388 18.359 15.405C19.3755 18.1755 20.153 21.0279 20.683 23.931C23.4239 22.0804 25.2791 19.1803 25.81 15.916L25.807 15.916ZM18.673 25.025C18.1099 21.9294 17.2544 18.8941 16.118 15.96L16.041 15.983C9.286 18.334 6.871 23.012 6.661 23.45C10.0774 26.1169 14.6716 26.7207 18.661 25.027L18.673 25.025ZM5.116 22.015C7.36913 18.3592 10.7964 15.5764 14.837 14.122C14.994 14.07 15.152 14.022 15.309 13.982C15.009 13.3 14.679 12.621 14.338 11.952C10.342 13.0953 6.20434 13.6676 2.04801 13.652L2.048 14.016C2.04511 16.9708 3.14013 19.8219 5.12061 22.0156L5.116 22.015ZM2.292 11.568C6.02422 11.5493 9.73918 11.0601 13.349 10.112C11.9963 7.73011 10.5165 5.42274 8.9159 3.19985C5.52108 4.79823 3.0705 7.89394 2.294 11.565L2.292 11.568ZM11.2 2.394C12.8367 4.6281 14.3262 6.96639 15.659 9.39402C18.1199 8.58596 20.2962 7.08659 21.928 5.075C19.0077 2.47667 14.9999 1.47359 11.2 2.39L11.2 2.394ZM23.257 6.457C21.477 8.58011 19.1758 10.2042 16.579 11.17C16.859 11.742 17.127 12.319 17.372 12.904C17.465 13.114 17.547 13.324 17.629 13.522C20.4093 13.2338 23.2171 13.3636 25.959 13.907C25.9416 11.1903 24.9901 8.56222 23.2641 6.46408L23.257 6.457Z" fill="#B0B7C3"/>
</svg>
