<svg width="28" height="24" viewBox="0 0 28 24" fill="none" xmlns="http://www.w3.org/2000/svg">
<path fill-rule="evenodd" clip-rule="evenodd" d="M27.946 3.33008C26.8962 3.79058 25.7842 4.09384 24.646 4.23009C25.8434 3.51062 26.7399 2.38213 27.17 1.05308C26.0386 1.71165 24.8059 2.1783 23.522 2.43409C21.9117 0.718262 19.417 0.159516 17.2287 1.02453C15.0403 1.88955 13.6019 4.00297 13.6 6.35608C13.6 6.79799 13.6497 7.23776 13.7482 7.66781C9.13241 7.44691 4.82876 5.27212 1.91301 1.68708C1.39838 2.56173 1.12989 3.55929 1.13601 4.57408C1.13426 6.49435 2.09242 8.28812 3.68923 9.35423C2.77756 9.32519 1.88605 9.07862 1.08901 8.63508L1.08901 8.70608C1.08738 11.4392 3.01145 13.7945 5.68946 14.3382C4.84747 14.5654 3.96505 14.5995 3.10801 14.4381C3.86429 16.7768 6.02151 18.3777 8.47901 18.4241C6.44842 20.0176 3.94123 20.8826 1.36001 20.8801C0.905566 20.8791 0.45153 20.8528 3.05176e-05 20.8011C2.632 22.4845 5.69171 23.3775 8.81602 23.3741C19.379 23.3741 25.148 14.6291 25.148 7.05708C25.148 6.81308 25.148 6.56708 25.131 6.32208C26.2573 5.51207 27.229 4.50646 28 3.35309L27.946 3.33008Z" fill="#B0B7C3"/>
</svg>
